<svg 
    xmlns="http://www.w3.org/2000/svg" 
    version="1.0" 
    width="321.000000pt" 
    height="160.000000pt" 
    viewBox="0 0 321.000000 160.000000" 
    preserveAspectRatio="xMidYMid meet">
<g transform="translate(0.000000,160.000000) scale(0.100000,-0.100000)" fill="#2D55DD" stroke="none">
<path d="M542 1235 c-26 -22 -32 -34 -32 -67 0 -21 5 -48 11 -60 15 -28 69 -48 130 -48 65 0 128 -34 160 -87 35 -57 32 -140 -7 -196 -17 -23 -48 -52 -69 -64 -37 -21 -50 -23 -185 -20 l-145 2 -3 122 -3 122 -31 26 c-40 34 -91 29 -125 -10 -23 -26 -23 -30 -23 -306 0 -182 4 -287 11 -301 6 -11 26 -26 45 -34 29 -12 39 -12 68 0 45 19 56 42 56 115 l0 61 112 0 112 0 127 -80 c144 -91 164 -100 202 -93 53 10 84 83 57 134 -6 10 -40 38 -75 60 -36 22 -65 44 -65 48 0 4 20 28 44 53 24 25 56 72 72 104 26 54 29 69 29 164 0 95 -3 111 -28 162 -63 128 -179 204 -329 215 -80 5 -85 5 -116 -22z"/>
<path d="M1374 1242 c-147 -51 -224 -203 -180 -354 20 -71 79 -138 154 -175 55 -27 64 -28 229 -31 l173 -4 25 -30 c32 -37 32 -79 1 -115 l-24 -28 -262 -5 -262 -5 -24 -28 c-34 -40 -32 -88 5 -129 l29 -33 264 0 c246 0 266 1 309 21 111 52 174 149 173 269 0 85 -24 145 -80 200 -71 69 -106 79 -307 85 l-179 5 -24 28 c-32 37 -32 86 1 121 l24 26 241 0 c265 0 286 4 315 60 18 35 19 51 3 85 -23 51 -46 55 -310 55 -206 -1 -251 -3 -294 -18z"/>
<path d="M2456 1250 c-111 -29 -225 -123 -274 -228 -26 -55 -27 -63 -27 -237 l0 -180 32 -67 c56 -119 167 -203 301 -228 152 -27 326 55 405 192 48 82 59 144 55 311 -3 142 -5 156 -31 209 -68 139 -194 225 -342 233 -44 2 -97 0 -119 -5z m193 -210 c85 -43 121 -121 121 -258 -1 -136 -35 -210 -119 -256 -106 -57 -240 -13 -299 99 -24 46 -29 229 -8 292 17 51 59 99 111 126 44 23 146 22 194 -3z"/>
</g>
</svg>