<svg xmlns="http://www.w3.org/2000/svg" version="1.1" xmlns:xlink="http://www.w3.org/1999/xlink" xmlns:svgjs="http://svgjs.dev/svgjs" width="2000" height="1247" viewBox="0 0 2000 1247"><g transform="matrix(1,0,0,1,-1.2121212121212466,0.504858299595071)"><svg viewBox="0 0 396 247" data-background-color="#ffffff" preserveAspectRatio="xMidYMid meet" height="1247" width="2000" xmlns="http://www.w3.org/2000/svg" xmlns:xlink="http://www.w3.org/1999/xlink"><g id="tight-bounds" transform="matrix(1,0,0,1,0.2400000000000091,-0.09999999999999432)"><svg viewBox="0 0 395.52 247.2" height="247.2" width="395.52"><g><svg viewBox="0 0 395.52 247.2" height="247.2" width="395.52"><g transform="matrix(1,0,0,1,0,59.38637602179837)"><svg viewBox="0 0 395.52 128.42724795640325" height="128.42724795640325" width="395.52"><g><svg viewBox="0 0 395.52 128.42724795640325" height="128.42724795640325" width="395.52"><g><svg viewBox="0 0 395.52 128.42724795640325" height="128.42724795640325" width="395.52"><g><svg viewBox="0 0 395.52 128.42724795640325" height="128.42724795640325" width="395.52"><g id="textblocktransform"><svg viewBox="0 0 395.52 128.42724795640325" height="128.42724795640325" width="395.52" id="textblock"><g><svg viewBox="0 0 395.52 128.42724795640325" height="128.42724795640325" width="395.52"><g transform="matrix(1,0,0,1,0,0)"><svg width="395.52" viewBox="-0.550000011920929 -35.75 110.10000610351562 35.75" height="128.42724795640325" data-palette-color="#173e66"><path d="M-0.55-2.15L4.3-2.15 4.3-34.95 17.55-34.95Q25.7-34.95 29.18-32.2 32.65-29.45 32.65-23.35L32.65-23.35Q32.65-14.95 26-12.5L26-12.5 33.3-2.15 38-2.15 38 0 25.25 0 17.5-11.15 12.1-11.15 12.1 0-0.55 0-0.55-2.15ZM17.8-17.9Q21.8-17.9 23.25-19.2 24.7-20.5 24.7-23.33 24.7-26.15 23.2-27.2 21.7-28.25 17.95-28.25L17.95-28.25 12.1-28.25 12.1-17.9 17.8-17.9ZM61.85-2.15L68.25-2.15 68.25 0 36.35 0 36.35-2.15 43.15-2.15Q40.4-3.55 38.15-5.75L38.15-5.75 42.8-11.45Q48.45-6.5 53.25-6.5L53.25-6.5Q55.4-6.5 56.62-7.43 57.85-8.35 57.85-9.93 57.85-11.5 56.55-12.43 55.25-13.35 51.4-14.3L51.4-14.3Q45.3-15.75 42.47-18.07 39.65-20.4 39.65-25.38 39.65-30.35 43.22-33.05 46.8-35.75 52.15-35.75L52.15-35.75Q55.65-35.75 59.15-34.55 62.65-33.35 65.25-31.15L65.25-31.15 61.3-25.45Q56.75-28.9 51.9-28.9L51.9-28.9Q49.95-28.9 48.82-27.98 47.7-27.05 47.7-25.53 47.7-24 49.07-23.1 50.45-22.2 55.42-20.98 60.4-19.75 63.15-17.3 65.9-14.85 65.9-10.5L65.9-10.5Q65.9-5.1 61.85-2.15L61.85-2.15ZM98.4-2.15L109.55-2.15 109.55 0 68.25 0 68.25-2.15 79.4-2.15Q75.3-4.5 72.92-8.6 70.55-12.7 70.55-17.7L70.55-17.7Q70.55-25.4 75.84-30.58 81.15-35.75 88.9-35.75 96.65-35.75 101.95-30.58 107.25-25.4 107.25-17.7L107.25-17.7Q107.25-12.7 104.84-8.6 102.45-4.5 98.4-2.15L98.4-2.15ZM99.3-17.68Q99.3-22.35 96.3-25.65 93.3-28.95 88.92-28.95 84.55-28.95 81.55-25.65 78.55-22.35 78.55-17.68 78.55-13 81.55-9.73 84.55-6.45 88.92-6.45 93.3-6.45 96.3-9.73 99.3-13 99.3-17.68Z" opacity="1" transform="matrix(1,0,0,1,0,0)" fill="#173e66" class="wordmark-text-0" data-fill-palette-color="primary" id="text-0"></path></svg></g></svg></g></svg></g></svg></g></svg></g></svg></g></svg></g></svg></g><defs></defs></svg><rect width="395.52" height="247.2" fill="none" stroke="none" visibility="hidden"></rect></g></svg></g></svg>