<svg xmlns="http://www.w3.org/2000/svg" version="1.1" xmlns:xlink="http://www.w3.org/1999/xlink" xmlns:svgjs="http://svgjs.dev/svgjs" width="2000" height="1247" viewBox="0 0 2000 1247"><g transform="matrix(1,0,0,1,-1.2121212121212466,0.5048582995951847)"><svg viewBox="0 0 396 247" data-background-color="#ffffff" preserveAspectRatio="xMidYMid meet" height="1247" width="2000" xmlns="http://www.w3.org/2000/svg" xmlns:xlink="http://www.w3.org/1999/xlink"><g id="tight-bounds" transform="matrix(1,0,0,1,0.2400000000000091,-0.09999999999999432)"><svg viewBox="0 0 395.52 247.2" height="247.2" width="395.52"><g><svg></svg></g><g><svg viewBox="0 0 395.52 247.2" height="247.2" width="395.52"><mask id="61330b75-0424-4b52-bd21-c95a1fbf75bf"><rect width="395.52" height="247.2" fill="white"></rect><g transform="matrix(1,0,0,1,2.842170943040401e-14,42.98845950238223)" id="clone"><svg viewBox="0 0 395.5199999999999 161.22308099523553" height="161.22308099523553" width="395.5199999999999"><g><svg viewBox="0 0 395.5199999999999 161.22308099523553" heigh22308099523553t="161.22308099523553" width="395.5199999999999"><g><svg viewBox="0 0 395.5199999999999 161.22308099523553" height="161.22308099523553" width="395.5199999999999"><g><svg viewBox="0 0 395.5199999999999 161.22308099523553" height="161.22308099523553" width="395.5199999999999"><g id="SvgjsG1059"><svg viewBox="0 0 395.5199999999999 161.22308099523553" height="161.22308099523553" width="395.5199999999999" id="SvgjsSvg1058"><g><svg viewBox="0 0 395.5199999999999 161.22308099523553" height="161.22308099523553" width="395.5199999999999"><g transform="matrix(1,0,0,1,0,0)"><svg width="395.5199999999999" viewBox="-1.1 -35.7 95.44999999999999 39.5" height="161.22308099523553" data-palette-color="#010c41"><path d="M25.7 0.8Q22.45 0.8 20.25-3.85L20.25-3.85 15.9-12.65 12.35-12.65 12.25-7Q12.25-5.25 12.5-4.48 12.75-3.7 13.45-3.45 14.15-3.2 15.85-3.15L15.85-3.15 16-2.85 15.55 0.2Q14.65 0.15 12.4 0.1 10.15 0.05 8.25 0.05L8.25 0.05Q6.4 0.05 4.45 0.15 2.5 0.25 1.9 0.3L1.9 0.3 2.35-3Q4.45-3.25 5.18-4.1 5.9-4.95 5.9-7.1L5.9-7.1 5.9-26.45Q5.9-27.9 5.58-28.4 5.25-28.9 4.3-28.9L4.3-28.9Q3.75-28.9 3.25-28.85 2.75-28.8 2.6-28.8L2.6-28.8 2.3-29.2 2.75-32.2Q3.45-32.2 5.33-32.15 7.2-32.1 9-32.1L9-32.1Q11-32.1 13.33-32.18 15.65-32.25 16.55-32.3L16.55-32.3Q22.25-32.3 25.28-30.1 28.3-27.9 28.3-23.75L28.3-23.75Q28.3-20.8 26.55-18.35 24.8-15.9 21.55-14.25L21.55-14.25 25.95-7.1Q27.35-4.8 28.65-3.8 29.95-2.8 31.55-2.8L31.55-2.8 31.9-2.35 31.55 0.25 25.7 0.8ZM17-16.5Q18.65-17.2 20-18.57 21.35-19.95 21.35-22.85L21.35-22.85Q21.35-25.6 19.5-26.95 17.65-28.3 13.8-28.3L13.8-28.3Q13.3-28.3 13.13-28.1 12.95-27.9 12.9-27.2L12.9-27.2Q12.6-22.05 12.5-17L12.5-17 17-16.5ZM43.05 0.6Q40.75 0.6 38.8 0.18 36.85-0.25 35.57-0.75 34.3-1.25 34.3-1.3L34.3-1.3 33.9-2Q33.95-2.35 34.12-3.53 34.3-4.7 34.5-6.68 34.7-8.65 34.7-10.5L34.7-10.5 38.8-10.8Q38.8-8 39.3-6.5 39.8-5 40.97-4.38 42.15-3.75 44.35-3.75L44.35-3.75Q46.75-3.75 48.2-4.8 49.65-5.85 49.65-7.7L49.65-7.7Q49.65-9.35 48.12-10.5 46.6-11.65 43.4-13.2L43.4-13.2Q43.2-13.3 42.25-13.75L42.25-13.75Q38.5-15.55 36.4-17.55 34.3-19.55 34.3-22.75L34.3-22.75Q34.3-25.6 36-27.88 37.7-30.15 40.72-31.43 43.75-32.7 47.6-32.7L47.6-32.7Q49.8-32.7 51.67-32.4 53.55-32.1 54.67-31.78 55.8-31.45 56.1-31.35L56.1-31.35 56.45-30.7Q56.4-30.4 56.15-29.18 55.9-27.95 55.65-26.05 55.4-24.15 55.25-22.15L55.25-22.15 51.55-21.85 51.1-22.15Q51.1-22.3 51.15-22.78 51.2-23.25 51.2-23.95L51.2-23.95Q51.2-26.2 50.07-27.15 48.95-28.1 46.3-28.1L46.3-28.1Q44.15-28.1 42.77-27.08 41.4-26.05 41.4-24.45L41.4-24.45Q41.4-23.25 42.27-22.28 43.15-21.3 44.37-20.6 45.6-19.9 47.95-18.75L47.95-18.75Q50.75-17.4 52.57-16.3 54.4-15.2 55.65-13.5 56.9-11.8 56.9-9.45L56.9-9.45Q56.9-6.45 55.17-4.17 53.45-1.9 50.32-0.65 47.2 0.6 43.05 0.6L43.05 0.6ZM74.75 0.6Q70.35 0.6 67.12-1.33 63.9-3.25 62.17-6.8 60.45-10.35 60.45-15.2L60.45-15.2Q60.45-20.4 62.5-24.35 64.55-28.3 68.27-30.5 72-32.7 76.85-32.7L76.85-32.7Q81.35-32.7 84.62-30.83 87.9-28.95 89.62-25.43 91.35-21.9 91.35-17.05L91.35-17.05Q91.35-11.85 89.27-7.83 87.2-3.8 83.42-1.6 79.65 0.6 74.75 0.6L74.75 0.6ZM76.05-3.65Q79.65-3.65 81.67-6.48 83.7-9.3 83.7-14.45L83.7-14.45Q83.7-21 81.55-24.48 79.4-27.95 75.45-27.95L75.45-27.95Q71.9-27.95 69.92-25.13 67.95-22.3 67.95-17.15L67.95-17.15Q67.95-10.6 70.07-7.13 72.2-3.65 76.05-3.65L76.05-3.65Z" opacity="1" transform="matrix(1,0,0,1,0,0)" fill="black" class="wordmark-text-0" id="SvgjsPath1057" stroke-width="5" stroke="black" stroke-linejoin="round"></path></svg></g></svg></g></svg></g></svg></g></svg></g></svg></g></svg></g></mask><g mask="url(#61330b75-0424-4b52-bd21-c95a1fbf75bf)"><g><path d="M263.481 247.2c-16.181 0-29.749-11.576-40.702-34.727v0l-32.487-65.721h-26.513l-0.746 42.195c0 8.713 0.622 14.986 1.867 18.82 1.245 3.884 3.61 6.448 7.094 7.693 3.485 1.245 9.46 1.992 17.924 2.24v0l1.121 2.241-3.361 22.778c-4.481-0.249-12.323-0.498-23.525-0.747-11.202-0.249-21.534-0.373-30.994-0.373v0c-9.211 0-18.671 0.249-28.379 0.747-9.709 0.498-16.057 0.871-19.044 1.12v0l3.361-24.645c10.456-1.245 17.501-3.983 21.135-8.216 3.585-4.232 5.377-11.7 5.377-22.404v0-144.512c0-7.219-0.797-12.074-2.39-14.563-1.643-2.489-4.829-3.734-9.559-3.734v0c-2.738 0-5.352 0.124-7.842 0.374-2.489 0.249-4.108 0.373-4.854 0.373v0l-2.241-2.987 3.361-22.405c3.485 0 9.908 0.124 19.268 0.373 9.31 0.249 18.447 0.373 27.409 0.374v0c9.958 0 20.737-0.199 32.337-0.598 11.551-0.349 19.567-0.647 24.048-0.896v0c28.379 0 50.112 5.477 65.198 16.43 15.036 10.953 22.554 26.761 22.554 47.424v0c0 14.688-4.356 28.131-13.069 40.328-8.713 12.198-21.16 22.405-37.342 30.62v0l32.861 53.399c6.97 11.451 13.692 19.666 20.164 24.645 6.473 4.979 13.692 7.468 21.658 7.468v0l2.614 3.361-2.614 19.417zM198.507 117.999c8.215-3.485 15.683-8.638 22.405-15.46 6.721-6.871 10.082-17.526 10.082-31.964v0c0-13.692-4.605-23.898-13.816-30.62-9.211-6.721-23.401-10.082-42.57-10.082v0c-2.489 0-4.157 0.498-5.003 1.494-0.896 0.996-1.469 3.236-1.718 6.721v0c-1.494 25.641-2.489 51.033-2.987 76.177v0z" fill="#010c41" fill-rule="nonzero" stroke="none" stroke-width="1" stroke-linecap="butt" stroke-linejoin="miter" stroke-miterlimit="10" stroke-dasharray="" stroke-dashoffset="0" font-family="none" font-weight="none" font-size="none" text-anchor="none" style="mix-blend-mode: normal" data-fill-palette-color="tertiary"></path></g></g><g transform="matrix(1,0,0,1,2.842170943040401e-14,42.98845950238223)"><svg viewBox="0 0 395.5199999999999 161.22308099523553" height="161.22308099523553" width="395.5199999999999"><g><svg viewBox="0 0 395.5199999999999 161.22308099523553" height="161.22308099523553" width="395.5199999999999"><g><svg viewBox="0 0 395.5199999999999 161.22308099523553" height="161.22308099523553" width="395.5199999999999"><g><svg viewBox="0 0 395.5199999999999 161.22308099523553" height="161.22308099523553" width="395.5199999999999"><g id="textblocktransform"><svg viewBox="0 0 395.5199999999999 161.22308099523553" height="161.22308099523553" width="395.5199999999999" id="textblock"><g><svg viewBox="0 0 395.5199999999999 161.22308099523553" height="161.22308099523553" width="395.5199999999999"><g transform="matrix(1,0,0,1,0,0)"><svg width="395.5199999999999" viewBox="-1.1 -35.7 95.44999999999999 39.5" height="161.22308099523553" data-palette-color="#010c41"><path d="M25.7 0.8Q22.45 0.8 20.25-3.85L20.25-3.85 15.9-12.65 12.35-12.65 12.25-7Q12.25-5.25 12.5-4.48 12.75-3.7 13.45-3.45 14.15-3.2 15.85-3.15L15.85-3.15 16-2.85 15.55 0.2Q14.65 0.15 12.4 0.1 10.15 0.05 8.25 0.05L8.25 0.05Q6.4 0.05 4.45 0.15 2.5 0.25 1.9 0.3L1.9 0.3 2.35-3Q4.45-3.25 5.18-4.1 5.9-4.95 5.9-7.1L5.9-7.1 5.9-26.45Q5.9-27.9 5.58-28.4 5.25-28.9 4.3-28.9L4.3-28.9Q3.75-28.9 3.25-28.85 2.75-28.8 2.6-28.8L2.6-28.8 2.3-29.2 2.75-32.2Q3.45-32.2 5.33-32.15 7.2-32.1 9-32.1L9-32.1Q11-32.1 13.33-32.18 15.65-32.25 16.55-32.3L16.55-32.3Q22.25-32.3 25.28-30.1 28.3-27.9 28.3-23.75L28.3-23.75Q28.3-20.8 26.55-18.35 24.8-15.9 21.55-14.25L21.55-14.25 25.95-7.1Q27.35-4.8 28.65-3.8 29.95-2.8 31.55-2.8L31.55-2.8 31.9-2.35 31.55 0.25 25.7 0.8ZM17-16.5Q18.65-17.2 20-18.57 21.35-19.95 21.35-22.85L21.35-22.85Q21.35-25.6 19.5-26.95 17.65-28.3 13.8-28.3L13.8-28.3Q13.3-28.3 13.13-28.1 12.95-27.9 12.9-27.2L12.9-27.2Q12.6-22.05 12.5-17L12.5-17 17-16.5ZM43.05 0.6Q40.75 0.6 38.8 0.18 36.85-0.25 35.57-0.75 34.3-1.25 34.3-1.3L34.3-1.3 33.9-2Q33.95-2.35 34.12-3.53 34.3-4.7 34.5-6.68 34.7-8.65 34.7-10.5L34.7-10.5 38.8-10.8Q38.8-8 39.3-6.5 39.8-5 40.97-4.38 42.15-3.75 44.35-3.75L44.35-3.75Q46.75-3.75 48.2-4.8 49.65-5.85 49.65-7.7L49.65-7.7Q49.65-9.35 48.12-10.5 46.6-11.65 43.4-13.2L43.4-13.2Q43.2-13.3 42.25-13.75L42.25-13.75Q38.5-15.55 36.4-17.55 34.3-19.55 34.3-22.75L34.3-22.75Q34.3-25.6 36-27.88 37.7-30.15 40.72-31.43 43.75-32.7 47.6-32.7L47.6-32.7Q49.8-32.7 51.67-32.4 53.55-32.1 54.67-31.78 55.8-31.45 56.1-31.35L56.1-31.35 56.45-30.7Q56.4-30.4 56.15-29.18 55.9-27.95 55.65-26.05 55.4-24.15 55.25-22.15L55.25-22.15 51.55-21.85 51.1-22.15Q51.1-22.3 51.15-22.78 51.2-23.25 51.2-23.95L51.2-23.95Q51.2-26.2 50.07-27.15 48.95-28.1 46.3-28.1L46.3-28.1Q44.15-28.1 42.77-27.08 41.4-26.05 41.4-24.45L41.4-24.45Q41.4-23.25 42.27-22.28 43.15-21.3 44.37-20.6 45.6-19.9 47.95-18.75L47.95-18.75Q50.75-17.4 52.57-16.3 54.4-15.2 55.65-13.5 56.9-11.8 56.9-9.45L56.9-9.45Q56.9-6.45 55.17-4.17 53.45-1.9 50.32-0.65 47.2 0.6 43.05 0.6L43.05 0.6ZM74.75 0.6Q70.35 0.6 67.12-1.33 63.9-3.25 62.17-6.8 60.45-10.35 60.45-15.2L60.45-15.2Q60.45-20.4 62.5-24.35 64.55-28.3 68.27-30.5 72-32.7 76.85-32.7L76.85-32.7Q81.35-32.7 84.62-30.83 87.9-28.95 89.62-25.43 91.35-21.9 91.35-17.05L91.35-17.05Q91.35-11.85 89.27-7.83 87.2-3.8 83.42-1.6 79.65 0.6 74.75 0.6L74.75 0.6ZM76.05-3.65Q79.65-3.65 81.67-6.48 83.7-9.3 83.7-14.45L83.7-14.45Q83.7-21 81.55-24.48 79.4-27.95 75.45-27.95L75.45-27.95Q71.9-27.95 69.92-25.13 67.95-22.3 67.95-17.15L67.95-17.15Q67.95-10.6 70.07-7.13 72.2-3.65 76.05-3.65L76.05-3.65Z" opacity="1" transform="matrix(1,0,0,1,0,0)" fill="#010c41" class="wordmark-text-0" data-fill-palette-color="primary" id="text-0"></path></svg></g></svg></g></svg></g></svg></g></svg></g></svg></g></svg></g></svg></g><defs></defs></svg><rect width="395.52" height="247.2" fill="none" stroke="none" visibility="hidden"></rect></g></svg></g></svg>