<svg fill="#000000" version="1.1" id="Capa_1" xmlns="http://www.w3.org/2000/svg" xmlns:xlink="http://www.w3.org/1999/xlink" viewBox="0 0 47 47" xml:space="preserve"><g id="SVGRepo_bgCarrier" stroke-width="0"></g><g id="SVGRepo_tracerCarrier" stroke-linecap="round" stroke-linejoin="round"></g><g id="SVGRepo_iconCarrier"> <g> <path d="M46.312,42.066l-9.226-9.224l0.92-3.325l-4.064-4.065l2.362-2.362c2.362-2.364,2.362-6.231,0-8.594l-9.833-9.833 c0,0,1.108-1.108,2.465-2.465c1.354-1.354,0.133-2.337-2.718-2.181L6.553,1.091c-2.85,0.156-5.309,2.615-5.464,5.466l-1.073,19.66 c-0.156,2.851,0.826,4.073,2.181,2.719s2.464-2.463,2.465-2.462l9.834,9.831c2.362,2.362,6.229,2.364,8.593,0l2.364-2.364 l2.861,2.859l3.327-0.917l1.604,1.603l1.496-0.503l1.323,1.323l-0.735,1.266l0.861,0.859l1.495-0.507l1.323,1.327l-0.735,1.265 l3.793,3.795c0.403,0.403,1.2,0.712,1.771,0.687l1.988-0.09c0.57-0.025,1.058-0.514,1.084-1.083l0.09-1.986 C47.023,43.268,46.714,42.47,46.312,42.066z M20.649,10.65l4.183,4.184l-4.182,4.184l-4.183-4.184L20.649,10.65z M10.65,20.648 l4.184-4.185l4.183,4.184l-4.183,4.184L10.65,20.648z M20.649,30.646l-4.183-4.185l4.183-4.181l4.183,4.181L20.649,30.646z M26.462,24.832l-4.181-4.183l4.181-4.185l4.185,4.184L26.462,24.832z"></path> </g> </g></svg>