<?xml version="1.0" encoding="iso-8859-1"?>
<!-- Uploaded to: SVG Repo, www.svgrepo.com, Generator: SVG Repo Mixer Tools -->
<svg fill="#000000" height="800px" width="800px" version="1.1" id="Layer_1" xmlns="http://www.w3.org/2000/svg" xmlns:xlink="http://www.w3.org/1999/xlink" 
	 viewBox="0 0 496 496" xml:space="preserve">
<g>
	<g>
		<g>
			<path d="M456,120h-8V88h-16V56h-64V40h-16v16h-64v32h-16v32h-16V40h-16V16.88L96.936,0.056L64,0v40H48v80h-8
				c-22.056,0-40,17.944-40,40v240c0,22.056,17.944,40,40,40h80v40h-16v16h288v-16h-16v-40h80c22.056,0,40-17.944,40-40V160
				C496,137.944,478.056,120,456,120z M304,72h112v16H304V72z M288,104h144v240H288V104z M256,136h16v208h-16V136z M80,16h15.528
				L224,31.12V40H80V16z M64,56h176v288H64V56z M360,480H136v-40h224V480z M480,400c0,13.232-10.768,24-24,24H40
				c-13.232,0-24-10.768-24-24v-8h464V400z M480,376H16V160c0-13.232,10.768-24,24-24h8v208H32v16h240h176h16v-16h-16V136h8
				c13.232,0,24,10.768,24,24V376z"/>
			<path d="M80,136h64V72H80V136z M96,88h32v32H96V88z"/>
			<path d="M160,136h64V72h-64V136z M176,88h32v32h-32V88z"/>
			<path d="M80,216h64v-64H80V216z M96,168h32v32H96V168z"/>
			<path d="M160,216h64v-64h-64V216z M176,168h32v32h-32V168z"/>
			<path d="M80,296h64v-64H80V296z M96,248h32v32H96V248z"/>
			<path d="M160,296h64v-64h-64V296z M176,248h32v32h-32V248z"/>
			<path d="M304,168h48v-48h-48V168z M320,136h16v16h-16V136z"/>
			<path d="M368,168h48v-48h-48V168z M384,136h16v16h-16V136z"/>
			<path d="M304,232h48v-48h-48V232z M320,200h16v16h-16V200z"/>
			<path d="M368,232h48v-48h-48V232z M384,200h16v16h-16V200z"/>
			<path d="M304,296h48v-48h-48V296z M320,264h16v16h-16V264z"/>
			<path d="M368,296h48v-48h-48V296z M384,264h16v16h-16V264z"/>
		</g>
	</g>
</g>
</svg>